<?xml version="1.0" standalone="no"?>
<!DOCTYPE svg PUBLIC "-//W3C//DTD SVG 20010904//EN"
 "http://www.w3.org/TR/2001/REC-SVG-20010904/DTD/svg10.dtd">
<svg version="1.0" xmlns="http://www.w3.org/2000/svg"
 width="4167.000000pt" height="2918.000000pt" viewBox="0 0 4167.000000 2918.000000"
 preserveAspectRatio="xMidYMid meet">

<g transform="translate(0.000000,2918.000000) scale(0.100000,-0.100000)"
fill="#000000" stroke="none">
<path d="M22170 20370 l0 -380 -50 0 -50 0 0 -225 0 -225 -135 0 -135 0 0
-260 0 -260 -247 -2 -248 -3 -3 -692 -2 -693 -50 0 -50 0 0 -403 0 -403 -177
-43 c-98 -23 -186 -45 -195 -48 -16 -4 -18 3 -18 51 l0 56 -115 0 -115 0 0
-84 0 -84 -197 -48 c-109 -26 -204 -49 -210 -51 -9 -4 -13 8 -13 41 l0 46
-115 0 -115 0 0 -73 0 -73 -202 -48 c-112 -27 -207 -49 -213 -50 -5 0 -11 16
-13 37 l-3 37 -115 0 -114 0 0 -1810 0 -1811 -157 3 -158 3 -3 503 -2 502
-545 0 -545 0 0 1650 0 1650 100 0 100 0 0 35 0 35 -100 0 -100 0 0 60 0 60
-130 0 -130 0 0 100 0 100 -1070 0 -1070 0 0 -100 0 -100 -130 0 -130 0 0 -60
0 -60 -105 0 -105 0 0 -35 0 -35 105 0 105 0 0 -1340 0 -1340 -175 0 -175 0 0
250 0 250 -945 0 -945 0 0 425 0 425 -545 0 -545 0 0 90 0 90 30 0 c27 0 30 3
30 30 l0 30 -237 2 -238 3 -3 443 -2 442 -125 0 -125 0 0 130 0 130 -100 0
-100 0 0 335 c0 328 0 335 -20 335 -20 0 -20 -7 -20 -335 l0 -335 -50 0 -50 0
0 420 c0 413 0 420 -20 420 -20 0 -20 -7 -20 -420 l0 -420 -60 0 -60 0 0 -130
0 -130 -30 0 -30 0 0 -1705 0 -1705 -550 0 -550 0 -2 388 -3 387 -95 2 c-52 1
-107 2 -122 2 l-28 1 0 81 0 81 -112 -4 -113 -3 0 465 0 465 33 3 32 3 0 70 0
69 -240 0 -240 0 0 205 0 206 -118 -3 -117 -3 -3 -203 -2 -203 -103 3 -102 3
-3 203 -2 202 -105 0 -105 0 0 -205 0 -205 -205 0 -205 0 0 205 0 205 -630 0
-630 0 0 -205 0 -205 -150 0 -150 0 0 -70 0 -70 85 0 85 0 0 -415 0 -415 -230
0 -230 0 0 -490 0 -490 -80 0 -80 0 0 -440 0 -440 -240 0 -240 0 0 245 0 245
-360 0 -360 0 0 -540 0 -540 -330 0 -330 0 0 55 0 55 -510 0 -510 0 0 -285 0
-285 -223 -2 -222 -3 -3 -267 -2 -268 -240 0 -240 0 0 -395 0 -395 19075 0
19075 0 0 375 0 375 -255 0 -255 0 0 290 0 290 -420 0 -419 0 -6 33 c-6 33
-83 545 -135 892 -17 110 -32 210 -35 222 l-5 23 -268 2 -267 3 -3 728 -2 727
35 0 35 0 0 65 0 65 -130 0 -130 0 0 285 c0 247 -2 285 -15 285 -13 0 -15 -38
-15 -285 l0 -285 -90 0 -90 0 0 235 c0 201 -2 235 -15 235 -12 0 -15 -35 -17
-232 l-3 -233 -237 -3 -238 -2 -5 22 c-3 13 -32 228 -65 478 -34 250 -63 461
-65 468 -2 6 -18 12 -35 12 l-30 0 0 175 0 175 -105 0 -105 0 0 -175 0 -175
-25 0 c-24 0 -25 2 -25 65 l0 65 -75 0 -75 0 0 -65 0 -65 -150 0 -150 0 0 155
0 155 -45 0 -45 0 0 110 0 110 -300 0 -300 0 0 -110 0 -110 -45 0 -45 0 0
-155 0 -155 -40 0 -40 0 0 -895 0 -895 -270 0 -270 0 0 2270 0 2270 -90 0 -90
0 0 500 0 500 -25 0 -25 0 0 -500 0 -500 -70 0 -70 0 0 690 0 690 -25 0 -25 0
0 -690 0 -690 -60 0 -60 0 0 375 0 375 -30 0 -30 0 0 -375 0 -375 -520 0 -520
0 0 -940 0 -940 -360 0 -360 0 0 -100 0 -100 -70 0 -70 0 0 -80 0 -80 30 0 30
0 0 -495 0 -495 -175 0 -175 0 0 -560 0 -560 -292 -2 -293 -3 -3 -483 -2 -482
-247 2 -246 3 -269 494 -268 494 0 184 0 183 85 0 85 0 0 75 0 75 -150 0 -150
0 0 99 0 99 43 33 c23 18 70 57 105 87 72 62 59 66 162 -48 l70 -78 -25 -43
c-29 -51 -34 -133 -10 -178 33 -66 117 -108 188 -97 144 23 203 186 109 298
-46 54 -132 74 -208 46 -32 -11 -32 -11 -117 78 l-84 89 92 102 c149 165 271
337 352 498 19 39 36 71 38 73 1 1 45 -17 97 -41 l95 -44 1 -53 c2 -97 78
-170 177 -170 144 0 225 151 149 279 -30 51 -79 76 -150 76 -68 0 -119 -26
-149 -77 -9 -15 -20 -28 -25 -28 -4 0 -47 18 -95 40 -70 32 -86 44 -82 58 3 9
22 58 41 108 73 188 119 383 138 588 l12 126 80 0 c112 0 118 -3 141 -62 48
-122 190 -157 285 -72 152 138 -9 380 -196 295 -48 -22 -80 -59 -96 -113 -10
-33 -15 -38 -32 -34 -12 3 -57 6 -102 6 l-81 0 -6 158 c-7 180 -34 356 -82
522 -18 63 -35 121 -37 128 -2 9 25 24 80 44 l83 31 31 -38 c58 -69 155 -86
234 -40 115 67 110 249 -9 312 -51 27 -136 23 -184 -9 -53 -35 -87 -103 -81
-162 l5 -42 -87 -31 -86 -31 -44 103 c-75 180 -212 400 -349 560 l-59 70 66
62 67 61 30 -18 c91 -55 207 -23 255 71 42 82 13 189 -64 234 -54 32 -136 34
-182 6 -83 -50 -116 -157 -75 -236 l21 -40 -67 -61 -68 -61 -89 84 c-158 150
-357 288 -555 384 -58 29 -108 53 -110 55 -2 2 13 43 33 91 l37 88 58 0 c103
0 175 72 175 175 0 95 -67 168 -164 178 -145 14 -241 -145 -165 -275 14 -23
29 -43 33 -43 4 0 15 -7 24 -14 17 -12 15 -18 -16 -97 -19 -46 -38 -85 -44
-87 -5 -1 -54 12 -108 31 -174 60 -468 117 -606 117 -37 0 -40 2 -34 23 3 12
6 68 6 123 l0 102 47 11 c88 22 155 121 139 204 -16 83 -79 139 -165 145 -51
4 -67 1 -105 -22 -129 -75 -105 -286 37 -321 l27 -7 0 -107 c0 -160 6 -151
-112 -151 -202 0 -508 -52 -669 -115 -13 -5 -22 12 -47 82 -17 48 -33 95 -36
103 -4 10 7 23 30 38 102 66 95 235 -12 298 -38 23 -54 26 -105 22 -90 -7
-151 -63 -164 -153 -16 -106 87 -211 199 -202 28 2 31 -1 62 -88 18 -49 33
-95 33 -101 1 -5 -36 -25 -81 -43 -224 -91 -459 -236 -625 -385 l-50 -45 -67
68 -67 68 23 38 c33 56 31 130 -5 184 -66 100 -204 109 -284 18 -74 -84 -48
-222 50 -274 43 -22 123 -22 169 1 l37 18 58 -62 c32 -35 59 -66 61 -71 2 -5
-8 -19 -21 -31 -136 -125 -317 -371 -417 -568 l-41 -78 -81 38 -82 38 2 49 c9
164 -184 252 -302 137 -106 -103 -44 -288 102 -302 67 -6 114 11 156 58 l35
39 78 -35 c43 -20 79 -37 80 -38 2 -1 -12 -40 -31 -87 -33 -81 -81 -229 -108
-334 l-14 -50 -497 -3 -497 -2 0 100 0 100 25 0 c20 0 25 5 25 25 l0 25 -380
0 -380 0 0 -25 c0 -18 5 -25 20 -25 19 0 20 -7 20 -100 l0 -100 -170 0 -170 0
0 -85 0 -85 35 0 c32 0 35 -2 35 -30 l0 -30 75 0 75 0 0 -285 0 -285 -650 0
-650 0 0 -25 c0 -24 3 -25 55 -25 l55 0 0 -510 0 -509 -122 -3 -122 -3 -110
-569 -111 -569 -3 1906 -2 1907 -50 0 -50 0 0 695 0 695 -250 0 -250 0 0 260
0 260 -135 0 -135 0 0 225 0 225 -50 0 -50 0 0 380 c0 247 -4 380 -10 380 -6
0 -10 -133 -10 -380z m6666 -2052 c-4 -123 -9 -262 -12 -309 l-6 -86 -116 -6
c-127 -7 -246 -26 -349 -58 -36 -11 -69 -17 -73 -12 -10 10 -200 552 -200 569
0 23 231 83 410 108 58 8 161 14 229 15 l123 1 -6 -222z m221 207 c137 -18
332 -64 447 -106 44 -17 82 -32 84 -33 2 -2 -49 -132 -114 -288 l-116 -285
-88 28 c-102 33 -255 65 -358 74 l-74 7 6 87 c3 47 8 186 12 309 l6 222 39 0
c21 0 91 -7 156 -15z m-897 -404 c55 -156 97 -287 94 -292 -3 -5 -11 -9 -17
-9 -21 0 -214 -97 -284 -143 -37 -24 -99 -69 -138 -100 -38 -31 -73 -57 -77
-57 -10 0 -412 430 -416 444 -6 27 242 211 418 311 104 59 302 146 312 136 4
-3 52 -134 108 -290z m1545 215 c187 -86 401 -234 553 -382 l91 -89 -155 -145
c-86 -80 -187 -173 -225 -208 l-69 -63 -87 76 c-115 99 -210 164 -330 227 -54
27 -99 51 -101 53 -2 1 45 119 103 261 59 143 111 269 116 282 11 29 17 28
104 -12z m-2111 -698 l128 -138 -72 -77 c-76 -84 -164 -206 -225 -316 -20 -38
-42 -66 -49 -64 -34 15 -542 250 -545 253 -7 7 52 124 114 223 70 114 171 244
271 350 l78 83 86 -89 c47 -48 143 -150 214 -225z m1223 100 c-4 -84 -14 -394
-23 -688 -9 -294 -21 -539 -25 -544 -16 -18 9 -84 -284 749 -103 291 -190 535
-192 542 -6 14 93 46 210 67 105 20 134 22 236 24 l84 2 -6 -152z m248 125
c91 -17 261 -69 270 -82 8 -15 -507 -1273 -524 -1279 -15 -5 -14 59 9 743 11
319 20 595 20 614 l0 34 73 -7 c39 -4 108 -14 152 -23z m1455 -202 c126 -167
299 -496 274 -520 -12 -12 -556 -212 -566 -209 -5 2 -24 38 -42 79 -45 105
-137 254 -212 342 l-62 74 227 212 226 212 39 -43 c21 -24 73 -90 116 -147z
m-2240 117 c26 -61 441 -1251 443 -1271 1 -12 -4 -22 -10 -22 -7 0 -171 169
-364 375 -193 206 -405 432 -471 502 l-120 127 38 33 c102 90 246 181 380 241
44 20 82 36 87 36 4 1 12 -9 17 -21z m1224 -74 c54 -30 130 -79 170 -108 83
-61 198 -166 194 -176 -2 -4 -120 -117 -264 -251 -143 -134 -367 -344 -496
-466 -130 -123 -241 -223 -246 -223 -6 0 -13 4 -16 9 -3 5 79 215 183 468 363
884 332 814 355 807 12 -3 65 -30 120 -60z m-1284 -736 c259 -276 469 -507
466 -512 -2 -6 -9 -10 -15 -8 -14 3 -1242 570 -1248 576 -23 22 278 446 317
446 5 0 221 -226 480 -502z m1720 377 c86 -99 216 -318 244 -411 7 -22 -46
-42 -1162 -452 -197 -73 -196 -70 158 260 80 74 271 253 425 396 154 144 283
261 286 260 3 -2 26 -25 49 -53z m-2840 -196 c146 -67 268 -125 272 -128 4 -4
-6 -40 -23 -81 -51 -127 -88 -293 -102 -465 l-2 -30 -150 3 c-82 1 -187 5
-232 8 l-83 6 0 69 0 69 75 0 75 0 0 30 c0 28 3 30 35 30 l35 0 0 85 0 85
-166 0 -166 0 7 33 c30 142 130 421 149 413 6 -2 130 -59 276 -127z m3748
-139 c55 -172 92 -411 92 -593 l0 -99 -57 6 c-32 3 -171 8 -309 12 l-251 6 -7
122 c-7 128 -31 268 -65 376 -11 35 -19 65 -18 66 20 13 574 210 579 205 3 -3
20 -49 36 -101z m-2815 -292 c337 -154 618 -287 626 -294 13 -11 12 -14 -3
-20 -10 -4 -313 3 -674 15 -361 12 -667 21 -679 21 -21 0 -23 5 -23 53 0 63
22 192 50 294 26 96 72 213 83 213 5 0 284 -127 620 -282z m2193 94 c34 -111
57 -255 58 -366 l1 -100 -85 2 c-237 6 -1052 32 -1167 38 -97 4 -133 9 -133
19 0 7 119 56 293 119 160 58 450 164 642 235 193 72 354 129 360 127 5 -1 19
-35 31 -74z m-3049 -388 l61 -5 7 -97 c8 -129 32 -268 62 -371 13 -46 20 -87
16 -91 -7 -7 -528 -200 -538 -200 -3 0 -5 11 -5 25 0 23 4 25 45 25 43 0 45 1
45 30 0 29 -2 30 -45 30 l-45 0 0 335 0 334 168 -5 c92 -3 195 -7 229 -10z
m773 -24 c316 -11 606 -20 643 -20 142 0 103 -18 -583 -271 l-645 -237 -26 81
c-31 96 -55 232 -64 370 l-7 97 54 0 c29 0 312 -9 628 -20z m1715 -55 c297 -9
560 -18 583 -21 l44 -5 -7 -62 c-16 -154 -63 -344 -113 -456 l-18 -39 -454
209 c-250 115 -531 245 -625 288 -117 53 -171 84 -174 96 -3 17 5 17 110 12
63 -4 357 -14 654 -22z m-985 -29 c0 -8 -226 -227 -502 -486 l-503 -471 -38
43 c-106 120 -282 433 -254 451 16 11 1268 475 1285 476 6 1 12 -6 12 -13z
m471 -115 c140 -65 418 -194 619 -286 201 -92 367 -170 369 -172 9 -7 -41 -98
-104 -194 -59 -88 -197 -249 -214 -249 -4 0 -131 132 -283 293 -151 160 -351
373 -444 472 -191 203 -233 255 -205 255 4 0 122 -53 262 -119z m1723 103 l68
-6 -6 -82 c-11 -133 -36 -273 -71 -401 -31 -113 -98 -300 -114 -318 -5 -5
-540 232 -559 248 -2 2 17 63 42 136 43 127 67 236 82 378 l6 63 242 -6 c132
-4 272 -9 310 -12z m-2405 -656 c-138 -337 -255 -623 -260 -636 l-9 -22 -70
35 c-38 19 -70 39 -70 44 0 17 654 1214 658 1203 2 -6 -110 -287 -249 -624z
m609 217 c115 -214 260 -482 321 -595 l111 -205 -53 -27 c-78 -40 -157 -71
-164 -65 -11 12 -460 1292 -455 1300 2 5 10 3 17 -5 6 -7 107 -188 223 -403z
m-333 -295 c-13 -377 -24 -687 -24 -689 -2 -8 -159 8 -237 24 -77 16 -264 72
-264 80 0 6 511 1248 522 1269 5 10 14 14 18 10 5 -5 -2 -317 -15 -694z m299
40 c126 -358 227 -652 225 -654 -9 -9 -160 -46 -240 -60 -80 -14 -275 -24
-283 -15 -2 3 40 1360 43 1377 1 1 7 2 14 2 7 0 103 -259 241 -650z m-715 49
c-165 -305 -304 -558 -309 -563 -16 -16 -212 127 -298 216 l-32 34 467 437
c256 241 468 436 470 434 1 -2 -132 -253 -298 -558z m827 309 c104 -111 292
-312 418 -447 l229 -244 -49 -44 c-49 -43 -170 -128 -195 -138 -14 -5 -27 18
-417 735 -164 303 -184 340 -178 340 2 0 89 -91 192 -202z m-1806 -139 c0 -20
80 -183 128 -259 25 -41 75 -110 110 -154 l64 -79 -24 -22 c-47 -45 -364 -340
-396 -369 l-34 -31 -40 45 c-54 59 -163 207 -217 293 -73 118 -161 306 -161
346 l0 36 273 102 c149 55 278 101 285 102 6 1 12 -4 12 -10z m3177 -264 l212
-98 -31 -61 c-48 -95 -115 -203 -189 -302 -70 -95 -236 -284 -249 -284 -8 0
-400 415 -414 438 -5 8 12 33 47 72 101 108 219 279 256 368 l13 31 71 -33
c40 -18 167 -77 284 -131z m-3584 -426 c31 -47 90 -125 132 -174 41 -49 75
-92 75 -95 0 -3 -30 -31 -66 -64 l-66 -59 -38 22 c-45 25 -121 28 -164 6 -15
-8 -30 -15 -32 -15 -2 0 -4 20 -4 45 l0 45 45 0 c43 0 45 1 45 30 0 29 -2 30
-45 30 l-45 0 0 252 0 253 53 -96 c29 -53 78 -134 110 -180z m808 107 c43 -40
116 -99 163 -131 47 -32 86 -61 85 -64 0 -3 -33 -64 -72 -136 l-72 -130 -53
-3 -52 -3 0 -97 c-1 -84 -4 -102 -24 -135 l-23 -38 -104 69 c-127 84 -233 169
-319 256 l-65 66 35 34 c79 77 413 386 418 386 2 0 39 -33 83 -74z m2283 -216
c128 -136 206 -226 203 -235 -3 -7 -39 -41 -79 -74 l-73 -60 -3 59 -3 60 -177
0 c-97 0 -182 4 -188 8 -10 7 -136 236 -142 259 -2 6 30 34 70 61 40 27 98 70
128 95 30 26 55 47 56 47 1 0 94 -99 208 -220z m-1919 -32 c36 -18 65 -37 65
-43 0 -5 -42 -112 -92 -237 l-93 -226 -3 143 -3 144 -44 3 -44 3 66 123 c37
67 70 122 74 122 5 0 38 -14 74 -32z m1481 -91 c35 -65 64 -120 64 -123 0 -2
-68 -3 -151 -2 l-152 3 -26 74 c-15 43 -22 76 -16 78 6 2 53 23 105 47 52 24
99 43 103 42 5 -1 38 -55 73 -119z m-1300 17 c107 -36 236 -63 339 -70 l88 -7
-6 -165 c-4 -91 -7 -196 -7 -234 l0 -68 -150 0 -150 0 0 200 0 200 -105 0
-105 0 -2 -197 -3 -198 -102 -3 c-101 -3 -103 -2 -103 20 0 27 211 548 222
548 4 0 42 -12 84 -26z m1014 -68 c11 -33 20 -63 20 -68 0 -4 -115 -8 -255 -8
l-255 0 0 -200 0 -200 -45 0 -45 0 0 68 c0 38 3 143 7 234 l6 165 96 2 c116 2
248 22 356 54 44 13 83 21 87 17 4 -3 17 -32 28 -64z m-2066 -74 c100 -94 225
-194 333 -265 51 -33 93 -63 93 -68 0 -4 -8 -21 -17 -38 l-18 -31 -182 0 -183
0 0 -75 0 -75 35 0 35 0 0 -197 0 -197 -262 -483 c-198 -365 -266 -483 -280
-483 -16 0 -18 11 -18 124 l0 125 43 3 c39 3 42 5 45 36 3 32 3 32 -42 32
l-46 0 2 398 3 397 43 3 c39 3 42 5 42 33 0 28 -2 29 -45 29 l-45 0 0 209 0
210 46 -21 c76 -33 158 -11 210 58 36 47 44 128 18 186 l-18 40 61 59 c34 32
64 59 68 59 4 0 40 -30 79 -68z m490 -358 c9 -3 16 -15 16 -25 0 -14 -7 -19
-30 -19 -31 0 -39 17 -18 38 14 14 12 14 32 6z m2956 -1544 c0 -6 -85 -10
-240 -10 l-240 0 0 452 0 453 240 -443 c132 -243 240 -446 240 -452z m-3350
425 l0 -435 -235 0 c-129 0 -235 3 -235 7 0 8 463 863 467 863 2 0 3 -196 3
-435z"/>
</g>
</svg>
